<svg width="538" height="49" viewBox="0 0 538 49" fill="none" xmlns="http://www.w3.org/2000/svg">
<g clip-path="url(#clip0_211_58)">
<path d="M47.7099 26.83H55.0799V33.67C53.7099 34.18 51.0699 34.71 48.5499 34.71C40.4099 34.71 37.6899 30.56 37.6899 22.16C37.6899 13.76 40.2599 9.42998 48.4199 9.42998C52.9499 9.42998 55.5299 10.85 57.6599 13.55L63.2699 8.38998C59.8599 3.47998 53.8499 1.97998 48.2199 1.97998C35.5299 1.97998 28.8799 8.87998 28.8799 22.09C28.8799 35.3 34.8999 42.33 48.1499 42.33C54.2099 42.33 60.1599 40.77 63.3899 38.51V19.52H47.6899V26.83H47.7099Z" fill="white" fill-opacity="0.8"/>
<path d="M9.07 2.56982H0V41.7298H27.8V34.1198H9.07V2.56982Z" fill="white" fill-opacity="0.8"/>
<path d="M101.19 41.7098V11.1798H86.9102V2.56982H125.96V11.1798H111.66V41.7098H101.19Z" fill="white" fill-opacity="0.8"/>
<path d="M188.96 0C176.73 0 166.83 9.92 166.83 22.16C166.83 34.4 176.74 44.27 188.96 44.27C201.18 44.27 211.07 34.36 211.07 22.16C211.07 9.96 201.17 0 188.96 0ZM188.96 33.7C182.58 33.7 177.41 28.52 177.41 22.16C177.41 15.8 182.59 10.59 188.96 10.59C195.33 10.59 200.52 15.76 200.52 22.16C200.52 28.56 195.35 33.7 188.96 33.7Z" fill="white" fill-opacity="0.8"/>
<path d="M164.15 32.8801C163.81 29.1901 162.56 24.6001 158.23 23.5301C158.06 23.5001 157.88 23.4701 157.88 23.4701L158.19 23.3701C158.98 23.0901 159.71 22.7101 160.36 22.2701C163.2 20.3001 164.62 17.0001 164.62 13.5801C164.62 5.67006 157.42 2.56006 150.12 2.56006H129V41.7001H139.78V27.4701H147.69C152.74 27.4701 153.43 31.5301 153.72 35.4701C153.84 36.5501 154.01 40.3801 154.94 41.7001H165.89C164.45 40.2901 164.28 34.5401 164.16 32.8801H164.15ZM148.84 19.5801H139.78V10.7201H148.37C151.4 10.7201 153.84 12.0501 153.84 14.9501C153.84 17.8501 152.08 19.5801 148.84 19.5801Z" fill="white" fill-opacity="0.8"/>
<path d="M257.08 41.6998V2.56982H241.65L235.67 26.8298L229.72 2.56982H214.26V41.6998H224.4V14.1998L231.85 41.6998H239.5L246.97 14.1998V41.6998H257.08Z" fill="white" fill-opacity="0.8"/>
<path d="M303.48 41.6998V2.56982H288.03L282.07 26.8298L276.1 2.56982H260.66V41.6998H270.77V14.1998L278.25 41.6998H285.9L293.36 14.1998V41.6998H303.48Z" fill="white" fill-opacity="0.8"/>
<path d="M440.34 33.1599C440.34 34.0899 440.46 34.9199 440.7 35.6799C440.94 36.4299 441.29 37.0799 441.78 37.5999C442.26 38.1399 442.86 38.5599 443.58 38.8499C444.31 39.1399 445.15 39.2899 446.11 39.2899H450.46L449.36 41.4599H445.5C444.43 41.4599 443.42 41.2799 442.48 40.9199C441.54 40.5499 440.71 40.0199 440.01 39.2999C439.3 38.5899 438.75 37.7199 438.35 36.6899C437.95 35.6499 437.74 34.4899 437.74 33.1599C437.74 31.8899 437.94 30.7399 438.33 29.7099C438.73 28.6799 439.27 27.7999 439.96 27.0999C440.65 26.3699 441.47 25.8299 442.42 25.4399C443.37 25.0499 444.39 24.8599 445.5 24.8599H450.47L449.37 27.0299H446.12C445.18 27.0299 444.36 27.1899 443.63 27.4799C442.92 27.7799 442.31 28.1899 441.83 28.7299C441.34 29.2699 440.98 29.9099 440.72 30.6699C440.48 31.4199 440.35 32.2499 440.35 33.1499L440.34 33.1599Z" fill="white" fill-opacity="0.8"/>
<path d="M457.411 41.7797C456.451 41.7797 455.601 41.6397 454.851 41.3297C454.091 41.0197 453.471 40.5697 452.951 40.0097C452.431 39.4497 452.031 38.7797 451.761 37.9997C451.491 37.2097 451.351 36.3197 451.351 35.3797C451.351 34.4397 451.491 33.5297 451.761 32.7397C452.031 31.9497 452.431 31.2797 452.951 30.7397C453.471 30.1697 454.101 29.7497 454.851 29.4397C455.601 29.1397 456.451 28.9697 457.411 28.9697C458.371 28.9697 459.221 29.1397 459.971 29.4397C460.721 29.7497 461.361 30.1797 461.871 30.7397C462.391 31.2797 462.791 31.9497 463.061 32.7397C463.341 33.5297 463.471 34.4097 463.471 35.3797C463.471 36.3497 463.331 37.2297 463.061 38.0197C462.791 38.7997 462.391 39.4597 461.871 40.0297C461.351 40.5797 460.711 41.0097 459.971 41.3197C459.211 41.6197 458.361 41.7697 457.411 41.7697V41.7797ZM457.411 31.0697C456.221 31.0697 455.301 31.4497 454.671 32.2397C454.041 32.9997 453.731 34.0597 453.731 35.3897C453.731 36.7197 454.041 37.7097 454.671 38.4997C455.301 39.2997 456.221 39.6897 457.411 39.6897C458.011 39.6897 458.541 39.5697 458.991 39.3397C459.461 39.0997 459.851 38.7997 460.151 38.4197C460.471 38.0297 460.701 37.5597 460.861 37.0497C461.021 36.5297 461.101 35.9697 461.101 35.3897C461.101 34.0597 460.781 33.0097 460.151 32.2397C459.521 31.4497 458.611 31.0697 457.421 31.0697H457.411Z" fill="white" fill-opacity="0.8"/>
<path d="M468.191 41.4496C466.281 41.4496 465.311 40.4696 465.311 38.4696V24.8696H467.651V38.4696C467.651 38.7796 467.701 38.9996 467.821 39.1596C467.941 39.3296 468.141 39.3996 468.431 39.3996H469.871L468.821 41.4496H468.181H468.191Z" fill="white" fill-opacity="0.8"/>
<path d="M474.46 41.4496C472.55 41.4496 471.59 40.4696 471.59 38.4696V24.8696H473.92V38.4696C473.92 38.7796 473.99 38.9996 474.11 39.1596C474.23 39.3296 474.43 39.3996 474.72 39.3996H476.15L475.11 41.4496H474.47H474.46Z" fill="white" fill-opacity="0.8"/>
<path d="M486.41 41.45H482.32C481.35 41.45 480.53 41.28 479.82 40.95C479.11 40.62 478.52 40.18 478.06 39.61C477.58 39.04 477.24 38.39 477 37.64C476.77 36.89 476.65 36.08 476.65 35.24C476.65 34.4 476.77 33.58 477 32.82C477.24 32.07 477.58 31.39 478.06 30.84C478.54 30.27 479.14 29.83 479.88 29.5C480.61 29.17 481.48 28.98 482.49 28.98C483.56 28.98 484.47 29.16 485.19 29.5C485.92 29.83 486.5 30.27 486.95 30.84C487.39 31.4 487.7 32.08 487.9 32.82C488.08 33.58 488.18 34.39 488.18 35.24V36.54H479.2C479.33 37.46 479.68 38.18 480.24 38.67C480.8 39.17 481.54 39.41 482.44 39.41H487.43L486.41 41.46V41.45ZM482.49 31.09C481.39 31.09 480.58 31.39 480.03 32C479.47 32.63 479.17 33.45 479.12 34.49H485.75C485.7 33.45 485.42 32.63 484.91 32C484.4 31.39 483.59 31.09 482.5 31.09H482.49Z" fill="white" fill-opacity="0.8"/>
<path d="M498.34 41.4498H495.49C494.64 41.4498 493.86 41.3198 493.14 41.0398C492.4 40.7798 491.78 40.3698 491.26 39.8398C490.75 39.3098 490.34 38.6698 490.04 37.9298C489.75 37.1798 489.59 36.3298 489.59 35.3798C489.59 34.4298 489.74 33.5998 490.06 32.8498C490.36 32.0998 490.78 31.4698 491.32 30.9298C491.86 30.4098 492.48 29.9998 493.2 29.7298C493.92 29.4498 494.68 29.3198 495.49 29.3198H499.39L498.34 31.3598H495.68C495.12 31.3598 494.6 31.4698 494.16 31.6498C493.7 31.8398 493.32 32.1398 493 32.4898C492.67 32.8398 492.42 33.2898 492.24 33.7698C492.06 34.2598 491.97 34.8098 491.97 35.3698C491.97 36.5398 492.29 37.5098 492.94 38.2598C493.58 39.0198 494.5 39.3798 495.68 39.3798H499.39L498.34 41.4298V41.4498Z" fill="white" fill-opacity="0.8"/>
<path d="M507.07 41.4497H504.71C503.48 41.4497 502.53 41.0997 501.83 40.3997C501.14 39.6997 500.8 38.7197 500.8 37.4297V25.6597H503.13V29.3097H508.04L507.02 31.3497H503.13V37.4997C503.13 38.7397 503.7 39.3597 504.84 39.3597H508.11L507.06 41.4397L507.07 41.4497Z" fill="white" fill-opacity="0.8"/>
<path d="M512.13 24.8696V26.9596H509.8V24.8696H512.13ZM512.13 29.3196V41.4496H509.8V29.3196H512.13Z" fill="white" fill-opacity="0.8"/>
<path d="M519.59 41.7797C518.63 41.7797 517.78 41.6397 517.03 41.3297C516.28 41.0197 515.65 40.5697 515.12 40.0097C514.6 39.4497 514.21 38.7797 513.93 37.9997C513.65 37.2097 513.51 36.3197 513.51 35.3797C513.51 34.4397 513.65 33.5297 513.93 32.7397C514.2 31.9497 514.6 31.2797 515.12 30.7397C515.64 30.1697 516.28 29.7497 517.03 29.4397C517.78 29.1397 518.63 28.9697 519.59 28.9697C520.55 28.9697 521.4 29.1397 522.14 29.4397C522.9 29.7497 523.53 30.1797 524.05 30.7397C524.57 31.2797 524.97 31.9497 525.25 32.7397C525.52 33.5297 525.65 34.4097 525.65 35.3797C525.65 36.3497 525.52 37.2297 525.25 38.0197C524.97 38.7997 524.58 39.4597 524.05 40.0297C523.53 40.5797 522.9 41.0097 522.14 41.3197C521.39 41.6197 520.54 41.7697 519.59 41.7697V41.7797ZM519.59 31.0697C518.4 31.0697 517.48 31.4497 516.86 32.2397C516.22 32.9997 515.91 34.0597 515.91 35.3897C515.91 36.7197 516.22 37.7097 516.86 38.4997C517.48 39.2997 518.4 39.6897 519.59 39.6897C520.19 39.6897 520.72 39.5697 521.18 39.3397C521.64 39.0997 522.02 38.7997 522.33 38.4197C522.63 38.0297 522.86 37.5597 523.03 37.0497C523.18 36.5297 523.27 35.9697 523.27 35.3897C523.27 34.0597 522.95 33.0097 522.33 32.2397C521.7 31.4497 520.78 31.0697 519.59 31.0697Z" fill="white" fill-opacity="0.8"/>
<path d="M533.79 29.3198C534.96 29.3198 535.94 29.6698 536.7 30.3898C537.47 31.0998 537.86 32.1498 537.88 33.5198V41.4598H535.56V33.4498C535.52 32.6998 535.33 32.1798 534.99 31.8898C534.65 31.5998 534.2 31.4298 533.67 31.3898H529.8V41.4498H527.5V29.3198H533.79V29.3198Z" fill="white" fill-opacity="0.8"/>
<path d="M363.49 27.8401C363.49 29.9301 363.19 31.8501 362.58 33.5801C361.98 35.3201 361.09 36.8101 359.93 38.0701C358.77 39.3301 357.35 40.3001 355.67 41.0001C353.99 41.6801 352.08 42.0201 349.93 42.0201C347.78 42.0201 345.82 41.6801 344.13 41.0001C342.45 40.3001 341.03 39.3301 339.89 38.1001C338.75 36.8501 337.88 35.3601 337.28 33.6401C336.67 31.8901 336.37 29.9701 336.37 27.8301C336.37 25.6901 336.67 23.7601 337.28 22.0101C337.88 20.2701 338.75 18.7601 339.89 17.5101C341.04 16.2501 342.46 15.2801 344.13 14.6001C345.81 13.9001 347.75 13.5601 349.93 13.5601C352.11 13.5601 354.04 13.9001 355.73 14.6001C357.41 15.2901 358.82 16.2601 359.96 17.5101C361.11 18.7601 361.99 20.2701 362.59 22.0101C363.2 23.7601 363.5 25.7001 363.5 27.8301L363.49 27.8401ZM349.92 38.3701C351.29 38.3701 352.54 38.1301 353.68 37.6601C354.81 37.1901 355.8 36.4901 356.62 35.6101C357.45 34.7101 358.09 33.6101 358.53 32.3001C358.98 31.0101 359.2 29.5201 359.2 27.8401C359.2 26.1601 358.98 24.6201 358.53 23.3101C358.09 22.0001 357.46 20.9001 356.65 20.0001C355.84 19.1101 354.86 18.4201 353.71 17.9601C352.56 17.5001 351.31 17.2701 349.93 17.2701C348.55 17.2701 347.26 17.5201 346.13 17.9901C345 18.4501 344.03 19.1501 343.22 20.0401C342.41 20.9301 341.78 22.0401 341.33 23.3601C340.88 24.6701 340.66 26.1601 340.66 27.8401C340.66 29.5201 340.88 31.0301 341.33 32.3401C341.78 33.6501 342.41 34.7601 343.24 35.6501C344.07 36.5401 345.04 37.2201 346.17 37.6801C347.3 38.1401 348.56 38.3701 349.93 38.3701H349.92Z" fill="white" fill-opacity="0.8"/>
<path d="M371.2 14.2002V21.5102H374.98C376.36 21.5102 377.63 21.7402 378.8 22.2002C379.98 22.6602 380.99 23.3202 381.82 24.1902C382.66 25.0602 383.32 26.1002 383.79 27.3102C384.27 28.5302 384.51 29.9002 384.51 31.4202C384.51 32.9402 384.27 34.3802 383.77 35.6202C383.28 36.8402 382.61 37.8902 381.76 38.7402C380.91 39.6002 379.9 40.2502 378.74 40.7102C377.58 41.1702 376.32 41.4102 374.98 41.4102H367.34V14.2002H371.2V14.2002ZM371.2 38.0402H374.68C375.61 38.0402 376.44 37.8702 377.16 37.5202C377.89 37.1702 378.52 36.6902 379.03 36.0802C379.55 35.4902 379.95 34.7802 380.2 33.9702C380.47 33.1602 380.61 32.3002 380.61 31.4102C380.61 30.5202 380.49 29.6602 380.23 28.8602C379.98 28.0702 379.6 27.3702 379.1 26.7702C378.6 26.1902 377.98 25.7402 377.24 25.3802C376.49 25.0202 375.65 24.8602 374.69 24.8602H371.21V38.0302L371.2 38.0402Z" fill="white" fill-opacity="0.8"/>
<path d="M389.08 21.5V41.97C389.08 42.89 388.89 43.63 388.5 44.17C388.11 44.72 387.51 45 386.69 45H385.18L383.46 48.36H387.08C387.91 48.36 388.69 48.22 389.4 47.91C390.11 47.62 390.73 47.21 391.25 46.66C391.77 46.11 392.17 45.45 392.47 44.67C392.76 43.89 392.91 42.99 392.91 41.98V21.5H389.09H389.08Z" fill="white" fill-opacity="0.8"/>
<path d="M412.6 41.4002H405.89C404.32 41.4002 402.95 41.1202 401.79 40.5702C400.63 40.0402 399.67 39.3002 398.91 38.3702C398.13 37.4602 397.55 36.3702 397.18 35.1402C396.8 33.9102 396.61 32.6002 396.61 31.1902C396.61 29.7802 396.8 28.4702 397.18 27.2302C397.56 25.9902 398.14 24.9002 398.93 23.9702C399.71 23.0402 400.7 22.3102 401.91 21.7902C403.11 21.2302 404.53 20.9702 406.19 20.9702C407.95 20.9702 409.42 21.2302 410.62 21.7902C411.81 22.3102 412.76 23.0502 413.49 23.9702C414.21 24.9002 414.73 25.9902 415.05 27.2302C415.35 28.4702 415.51 29.8002 415.51 31.1902V33.3402H400.78C401 34.8402 401.57 36.0102 402.5 36.8102C403.42 37.6302 404.62 38.0302 406.12 38.0302H414.3L412.61 41.3902L412.6 41.4002ZM406.19 24.4002C404.4 24.4002 403.04 24.9102 402.14 25.9102C401.23 26.9102 400.73 28.2802 400.65 29.9902H411.52C411.43 28.2802 410.97 26.9202 410.13 25.9102C409.3 24.9102 407.98 24.4002 406.19 24.4002V24.4002Z" fill="white" fill-opacity="0.8"/>
<path d="M429.03 41.4003H425.17C423.16 41.4003 421.59 40.8103 420.46 39.6903C419.32 38.5203 418.75 36.9003 418.75 34.8203V15.5103H422.57V21.5103H430.63L428.95 24.8703H422.57V34.9203C422.57 36.9703 423.51 37.9903 425.38 37.9903H430.76L429.04 41.4103L429.03 41.4003Z" fill="white" fill-opacity="0.8"/>
<path d="M397.19 14.2202H393.41L389.08 19.5002H392.86L397.19 14.2202Z" fill="white" fill-opacity="0.8"/>
<path d="M321.43 13.4502H319.71V42.0102H321.43V13.4502Z" fill="white" fill-opacity="0.8"/>
</g>
<defs>
<clipPath id="clip0_211_58">
<rect width="537.88" height="48.36" fill="white"/>
</clipPath>
</defs>
</svg>
