<?xml version="1.0" encoding="utf-8"?>
<!-- Generator: Adobe Illustrator 16.0.0, SVG Export Plug-In . SVG Version: 6.00 Build 0)  -->
<!DOCTYPE svg PUBLIC "-//W3C//DTD SVG 1.1//EN" "http://www.w3.org/Graphics/SVG/1.1/DTD/svg11.dtd">
<svg version="1.1" id="Layer_1" xmlns="http://www.w3.org/2000/svg" xmlns:xlink="http://www.w3.org/1999/xlink" x="0px" y="0px"
	 width="350px" height="50px" viewBox="0 0 350 50" enable-background="new 0 0 350 50" xml:space="preserve">
<g>
	<g>
		<g>
			<path fill="#3C3E39" d="M275.504,33.527c0,0.748,0.094,1.309,0.28,1.869c0.187,0.562,0.468,1.027,0.841,1.402
				c0.375,0.373,0.842,0.748,1.402,0.936c0.562,0.188,1.217,0.375,1.871,0.375h3.271l-0.841,1.684h-2.898
				c-0.748,0-1.59-0.094-2.244-0.375c-0.653-0.279-1.311-0.654-1.869-1.215c-0.563-0.563-0.938-1.217-1.215-1.964
				c-0.281-0.748-0.471-1.683-0.471-2.618s0.188-1.87,0.471-2.619c0.277-0.748,0.748-1.402,1.215-1.963
				c0.468-0.561,1.121-0.936,1.869-1.216s1.496-0.468,2.338-0.468h3.74l-0.843,1.59h-2.431c-0.654,0-1.311,0.094-1.871,0.373
				c-0.563,0.188-1.027,0.563-1.402,0.936c-0.371,0.375-0.652,0.936-0.842,1.497C275.598,32.219,275.504,32.779,275.504,33.527z"/>
			<path fill="#3C3E39" d="M288.314,39.979c-0.748,0-1.402-0.094-1.965-0.373c-0.563-0.28-1.027-0.562-1.402-1.028
				c-0.373-0.373-0.654-0.937-0.937-1.496c-0.187-0.562-0.278-1.215-0.278-1.963s0.094-1.402,0.278-1.966
				c0.188-0.562,0.47-1.12,0.937-1.494c0.375-0.469,0.842-0.748,1.402-1.028c0.563-0.28,1.217-0.375,1.965-0.375
				s1.4,0.095,1.963,0.375c0.562,0.188,1.029,0.562,1.402,1.028c0.375,0.374,0.653,0.935,0.936,1.494
				c0.188,0.563,0.281,1.218,0.281,1.966s-0.094,1.401-0.281,1.963c-0.188,0.563-0.467,1.123-0.936,1.496
				c-0.373,0.375-0.843,0.748-1.402,0.937C289.717,39.886,289.063,39.979,288.314,39.979z M288.314,31.938
				c-0.938,0-1.59,0.281-2.06,0.842c-0.468,0.563-0.748,1.402-0.748,2.34s0.28,1.775,0.748,2.338c0.47,0.563,1.218,0.936,2.06,0.936
				c0.467,0,0.842-0.094,1.215-0.279c0.375-0.188,0.654-0.375,0.842-0.748c0.281-0.281,0.374-0.654,0.561-1.029
				c0.094-0.373,0.188-0.841,0.188-1.215c0-1.029-0.28-1.777-0.748-2.338C289.904,32.219,289.249,31.938,288.314,31.938z"/>
			<path fill="#3C3E39" d="M296.449,39.699c-1.402,0-2.15-0.748-2.15-2.244V27.262h1.776v10.287c0,0.279,0,0.373,0.094,0.561
				c0.093,0.096,0.28,0.188,0.468,0.188h1.121l-0.841,1.589h-0.468V39.699L296.449,39.699z"/>
			<path fill="#3C3E39" d="M301.219,39.699c-1.402,0-2.15-0.748-2.15-2.244V27.262h1.775v10.287c0,0.279,0,0.373,0.094,0.561
				c0.096,0.096,0.281,0.188,0.47,0.188h1.12l-0.748,1.589h-0.561V39.699L301.219,39.699z"/>
			<path fill="#3C3E39" d="M310.195,39.699h-3.086c-0.748,0-1.311-0.094-1.87-0.375c-0.563-0.279-0.938-0.561-1.31-1.027
				c-0.375-0.469-0.654-0.936-0.748-1.496c-0.188-0.562-0.281-1.217-0.281-1.777c0-0.652,0.095-1.215,0.281-1.869
				c0.188-0.563,0.467-1.027,0.748-1.495c0.372-0.47,0.842-0.748,1.4-1.028c0.563-0.279,1.217-0.375,1.965-0.375
				c0.842,0,1.496,0.096,2.059,0.375c0.561,0.28,0.936,0.563,1.309,1.028c0.375,0.374,0.563,0.935,0.748,1.495
				c0.094,0.563,0.188,1.217,0.188,1.869v1.029h-6.73c0.094,0.654,0.374,1.215,0.747,1.59c0.375,0.373,0.937,0.563,1.685,0.563h3.74
				L310.195,39.699z M307.203,31.938c-0.842,0-1.403,0.188-1.871,0.654c-0.373,0.469-0.654,1.123-0.654,1.871h5.051
				c0-0.748-0.279-1.402-0.654-1.871C308.699,32.125,308.045,31.938,307.203,31.938z"/>
			<path fill="#3C3E39" d="M319.172,39.699h-2.15c-0.653,0-1.215-0.094-1.775-0.281s-1.028-0.467-1.402-0.936
				c-0.373-0.373-0.652-0.842-0.936-1.402c-0.188-0.561-0.373-1.215-0.373-1.963s0.093-1.309,0.373-1.87
				c0.188-0.562,0.563-1.028,0.936-1.403c0.374-0.373,0.844-0.748,1.402-0.935c0.563-0.187,1.123-0.28,1.775-0.28h2.898l-0.748,1.59
				h-1.964c-0.468,0-0.841,0.094-1.122,0.188c-0.374,0.187-0.654,0.372-0.842,0.653c-0.28,0.279-0.467,0.563-0.561,0.937
				c-0.096,0.374-0.188,0.748-0.188,1.216c0,0.844,0.28,1.59,0.748,2.148c0.468,0.563,1.122,0.844,2.058,0.844h2.807L319.172,39.699
				z"/>
			<path fill="#3C3E39" d="M325.811,39.699h-1.774c-0.937,0-1.685-0.281-2.151-0.842c-0.467-0.563-0.746-1.311-0.746-2.244V27.73
				h1.775v2.711h3.738l-0.746,1.59h-2.898v4.676c0,0.936,0.469,1.402,1.311,1.402h2.432L325.811,39.699z"/>
			<path fill="#3C3E39" d="M329.551,27.262v1.59h-1.683v-1.59H329.551z M329.551,30.629v9.164h-1.683v-9.164H329.551z"/>
			<path fill="#3C3E39" d="M335.255,39.979c-0.748,0-1.401-0.094-1.964-0.373c-0.561-0.28-1.027-0.562-1.402-1.028
				c-0.373-0.373-0.654-0.937-0.936-1.496c-0.188-0.562-0.279-1.215-0.279-1.963s0.094-1.402,0.279-1.966
				c0.188-0.562,0.469-1.12,0.936-1.494c0.375-0.469,0.842-0.748,1.402-1.028c0.563-0.28,1.216-0.375,1.964-0.375
				s1.403,0.095,1.964,0.375c0.561,0.188,1.028,0.562,1.402,1.028c0.374,0.374,0.654,0.935,0.936,1.494
				c0.188,0.563,0.28,1.218,0.28,1.966s-0.094,1.401-0.28,1.963c-0.188,0.563-0.468,1.123-0.936,1.496
				c-0.374,0.375-0.842,0.748-1.402,0.937C336.564,39.886,335.91,39.979,335.255,39.979z M335.255,31.938
				c-0.935,0-1.589,0.281-2.058,0.842c-0.467,0.563-0.748,1.402-0.748,2.34s0.188,1.775,0.748,2.338
				c0.469,0.563,1.123,0.936,2.058,0.936c0.468,0,0.843-0.094,1.216-0.279c0.375-0.188,0.654-0.375,0.842-0.748
				c0.188-0.281,0.373-0.654,0.563-1.029c0.094-0.373,0.188-0.841,0.188-1.215c0-1.029-0.28-1.777-0.748-2.338
				C336.751,32.219,336.098,31.938,335.255,31.938z"/>
			<path fill="#3C3E39" d="M345.915,30.629c0.935,0,1.589,0.28,2.149,0.842c0.563,0.563,0.843,1.309,0.936,2.338v5.984h-1.775
				v-5.984l0,0c0-0.562-0.188-0.936-0.469-1.217c-0.279-0.188-0.561-0.373-1.027-0.373h-2.897v7.574h-1.774v-9.164H345.915z"/>
		</g>
		<g>
			<path fill="#3C3E39" d="M217.529,29.506c0,1.59-0.188,2.993-0.655,4.303c-0.468,1.311-1.122,2.433-1.964,3.365
				c-0.842,0.936-1.963,1.684-3.18,2.244c-1.311,0.468-2.711,0.748-4.301,0.748c-1.686,0-3.088-0.279-4.396-0.748
				c-1.311-0.561-2.34-1.215-3.182-2.244c-0.842-0.935-1.496-2.057-1.963-3.365c-0.469-1.31-0.654-2.807-0.654-4.396
				c0-1.59,0.188-3.086,0.654-4.395s1.121-2.431,1.963-3.366s1.965-1.683,3.182-2.151c1.309-0.561,2.711-0.748,4.396-0.748
				c1.684,0,3.086,0.281,4.395,0.748c1.31,0.561,2.338,1.216,3.18,2.151s1.496,2.057,1.964,3.366
				C217.342,26.514,217.529,27.917,217.529,29.506z M207.336,37.455c1.029,0,1.964-0.188,2.807-0.563
				c0.84-0.373,1.588-0.842,2.244-1.588c0.653-0.656,1.121-1.496,1.401-2.525c0.374-0.938,0.468-2.057,0.468-3.366
				s-0.188-2.431-0.468-3.46c-0.374-1.028-0.841-1.87-1.401-2.524c-0.563-0.655-1.311-1.216-2.244-1.59
				c-0.843-0.374-1.775-0.468-2.807-0.468c-1.027,0-2.057,0.188-2.898,0.562c-0.84,0.374-1.59,0.841-2.148,1.589
				c-0.654,0.655-1.123,1.496-1.4,2.525c-0.375,1.028-0.471,2.15-0.471,3.366c0,1.31,0.188,2.431,0.471,3.366
				c0.371,1.029,0.84,1.777,1.4,2.525c0.652,0.652,1.4,1.215,2.244,1.494C205.373,37.268,206.309,37.455,207.336,37.455z"/>
			<path fill="#3C3E39" d="M223.326,19.221v5.517h2.805c1.029,0,1.965,0.187,2.898,0.467c0.936,0.374,1.684,0.842,2.244,1.496
				c0.653,0.654,1.123,1.402,1.496,2.338c0.375,0.936,0.563,1.963,0.563,3.086c0,1.215-0.188,2.244-0.563,3.18
				c-0.373,0.937-0.843,1.685-1.496,2.338c-0.654,0.654-1.402,1.121-2.244,1.496c-0.842,0.373-1.775,0.563-2.805,0.563h-5.799
				v-20.48H223.326z M223.326,37.174h2.617c0.654,0,1.311-0.094,1.871-0.373c0.561-0.281,1.027-0.654,1.4-1.123
				c0.375-0.467,0.654-0.935,0.844-1.59c0.188-0.654,0.279-1.215,0.279-1.963c0-0.654-0.094-1.311-0.279-1.871
				c-0.188-0.561-0.469-1.121-0.844-1.589c-0.373-0.468-0.842-0.748-1.4-1.028c-0.563-0.281-1.217-0.375-1.965-0.375h-2.617v9.912
				H223.326z"/>
			<path fill="#3C3E39" d="M236.791,24.738v15.428c0,0.654-0.188,1.216-0.467,1.684c-0.281,0.375-0.748,0.654-1.403,0.654h-0.28
				h-0.094h-0.561l0,0h-0.188l-1.31,2.525h1.496l0,0h0.562h0.095h0.562c0.653,0,1.216-0.094,1.776-0.375
				c0.562-0.188,1.027-0.563,1.401-0.937c0.374-0.372,0.654-0.935,0.937-1.495c0.188-0.563,0.373-1.311,0.373-2.059V24.738H236.791z
				"/>
			<path fill="#3C3E39" d="M254.559,39.793h-5.051c-1.215,0-2.244-0.188-3.086-0.654c-0.841-0.375-1.589-0.936-2.15-1.684
				c-0.561-0.654-1.026-1.496-1.309-2.432c-0.281-0.938-0.468-1.963-0.468-2.992s0.094-2.057,0.468-2.992
				c0.28-0.936,0.748-1.777,1.309-2.432c0.563-0.75,1.312-1.215,2.244-1.685c0.938-0.374,1.965-0.655,3.18-0.655
				c1.311,0,2.434,0.187,3.367,0.655c0.936,0.374,1.59,0.935,2.15,1.685c0.561,0.748,0.936,1.496,1.215,2.432
				c0.188,0.936,0.374,1.963,0.374,2.992v1.59h-11.128c0.188,1.122,0.563,2.057,1.311,2.618c0.654,0.653,1.591,0.935,2.711,0.935
				h6.174L254.559,39.793z M249.695,26.982c-1.309,0-2.338,0.373-3.086,1.121c-0.654,0.748-1.028,1.775-1.123,3.086h8.229
				c-0.094-1.311-0.375-2.338-1.027-3.086C252.033,27.355,251.098,26.982,249.695,26.982z"/>
			<path fill="#3C3E39" d="M266.994,39.793h-2.898c-1.496,0-2.712-0.469-3.554-1.311c-0.841-0.842-1.31-2.059-1.31-3.646V20.249
				h2.897v4.489h6.078l-1.216,2.524h-4.77v7.574c0,1.59,0.748,2.338,2.149,2.338h4.021L266.994,39.793z"/>
			<polygon fill="#3C3E39" points="242.963,19.314 240.064,19.314 236.791,23.242 239.689,23.242 			"/>
		</g>
		<rect x="184.521" y="18.753" fill="#3C3E39" width="1.31" height="21.507"/>
	</g>
	<g>
		<g>
			<g>
				<polygon fill="#231815" points="172.832,34.275 137.112,34.275 137.112,38.67 170.588,38.67 				"/>
				<path fill="#231815" d="M165.538,28.385l2.151-4.302h-19.356c-0.749,0-0.936-0.187-0.936-0.935v-9.257h19.263V9.496h-24.312
					v14.12c0,3.646,0.935,4.769,4.862,4.769H165.538z"/>
			</g>
			<g>
				<rect x="129.818" y="7.532" fill="#231815" width="4.862" height="34.972"/>
				<polygon fill="#231815" points="122.244,7.532 122.244,19.782 117.756,19.782 117.756,24.177 122.244,24.177 122.244,41.85 
					127.106,41.85 127.106,7.532 				"/>
				<path fill="#231815" d="M107.657,30.348v-5.982h8.416V12.582c0-1.215-0.935-2.15-2.151-2.15h-10.94v4.114h8.509v5.891h-8.416
					v14.12h15.055l2.057-4.115h-12.53V30.348z"/>
			</g>
			<g>
				<g>
					<path fill="#231815" d="M74.648,38.576v-1.402h20.198v-9.351h-25.06v3.834h20.011v1.87H69.599v7.293
						c0,1.402,0.748,2.15,2.244,2.15h22.91l1.87-3.835H75.116C74.742,39.139,74.648,39.045,74.648,38.576"/>
					<path fill="#231815" d="M84.841,22.213v-1.776c5.797-0.562,8.977-2.899,8.977-6.639c0-4.301-4.302-6.733-11.501-6.733
						c-7.294-0.093-11.595,2.338-11.595,6.733c0,3.74,3.179,6.171,9.07,6.639v1.776H64.643v3.928h33.85l1.963-3.928H84.841z
						 M75.864,13.797c0-1.87,2.337-2.805,6.452-2.805c4.021,0,6.358,1.028,6.358,2.805c0,1.963-2.525,2.805-6.358,2.805
						C78.482,16.603,75.864,15.667,75.864,13.797z"/>
				</g>
				<g>
					<polygon fill="#231815" points="8.258,10.337 1.525,10.337 1.525,39.605 22.284,39.605 22.284,33.9 8.258,33.9 					"/>
					<path fill="#231815" d="M37.152,28.479h5.517v5.145c-1.029,0.374-2.992,0.748-4.862,0.748c-6.078,0-8.135-3.086-8.135-9.351
						c0-5.984,1.963-9.538,8.042-9.538c3.366,0,5.33,1.028,6.919,3.085l4.208-3.833c-2.525-3.647-7.013-4.769-11.221-4.769
						c-9.444,0-14.4,5.143-14.4,14.961c0,9.818,4.488,15.057,14.4,15.057c4.488,0,8.977-1.123,11.408-2.808V22.961H37.152V28.479z"
						/>
				</g>
			</g>
		</g>
	</g>
</g>
</svg>
