<svg width="30" height="30" viewBox="0 0 30 30" fill="none" xmlns="http://www.w3.org/2000/svg">
<path d="M13.7244 6.25H25.625L23.9613 12.5144C23.5738 13.975 22.18 15 20.58 15H10.625" stroke="#3A3A3A" stroke-opacity="0.8" stroke-width="2" stroke-linecap="round" stroke-linejoin="round"/>
<path d="M11.25 25.3125C12.1129 25.3125 12.8125 24.6129 12.8125 23.75C12.8125 22.8871 12.1129 22.1875 11.25 22.1875C10.3871 22.1875 9.6875 22.8871 9.6875 23.75C9.6875 24.6129 10.3871 25.3125 11.25 25.3125Z" stroke="#3A3A3A" stroke-opacity="0.8" stroke-width="2"/>
<path d="M22.5 25.3125C23.3629 25.3125 24.0625 24.6129 24.0625 23.75C24.0625 22.8871 23.3629 22.1875 22.5 22.1875C21.6371 22.1875 20.9375 22.8871 20.9375 23.75C20.9375 24.6129 21.6371 25.3125 22.5 25.3125Z" stroke="#3A3A3A" stroke-opacity="0.8" stroke-width="2"/>
<path d="M3.12061 5.0144H6.24811L10.7606 17.1232C11.125 18.1013 12.0581 18.75 13.1025 18.75H23.125" stroke="#3A3A3A" stroke-opacity="0.8" stroke-width="2" stroke-linecap="round" stroke-linejoin="round"/>
</svg>
