<?xml version="1.0" encoding="UTF-8"?><svg xmlns="http://www.w3.org/2000/svg" width="164.03mm" height="19mm" viewBox="0 0 464.95 53.85"><defs><style>.d{fill:#000;}.e{fill:#000;}</style></defs><g id="a"/><g id="b"><g id="c"><g><path class="e" d="M41.04,21.73h6.34v5.89c-1.18,.44-3.45,.9-5.62,.9-7,0-9.35-3.58-9.35-10.8s2.23-10.96,9.23-10.96c3.9,0,6.1,1.22,7.96,3.57l4.83-4.46C51.5,1.65,46.33,.36,41.49,.36,30.57,.36,24.86,6.32,24.86,17.66s5.17,17.4,16.57,17.4c5.22,0,10.33-1.34,13.11-3.28V15.44h-13.5v6.29Z"/><polygon class="e" points="0 .86 0 34.56 23.92 34.56 23.92 28 7.8 28 7.8 .86 0 .86"/><polygon class="d" points="158.95 .88 150.21 34.56 158.92 34.56 167.68 .88 158.95 .88"/><polygon class="d" points="255.28 .89 249.3 23.79 240.75 .89 231.53 .89 222.75 34.55 231.48 34.55 237.4 11.74 245.95 34.55 255.23 34.55 263.99 .89 255.28 .89"/><polygon class="d" points="111.09 .88 101.26 19.67 100.74 .88 93.71 .88 83.28 19.67 83.54 .88 74.74 .88 77.07 34.56 83.63 34.56 93.97 15.56 94.02 34.56 100.53 34.56 119.93 .88 111.09 .88"/><polygon class="d" points="143.65 .88 140.45 13.16 128.36 13.16 131.53 .88 122.82 .88 114.07 34.56 122.77 34.56 126.68 19.6 138.78 19.6 134.91 34.55 143.03 34.55 143.69 34.17 152.34 .88 143.65 .88"/><path class="d" d="M143.03,34.53c1.51,11.39,8.11,18,19.38,19.16,13.18,1.38,29.41-5.89,38.19-19.12h16.13l1.63-6.4h-14.29s1.32-3.19,2.98-8.54h13.5l1.7-6.45h-13.52l1.51-5.8h13.49l1.69-6.5h-22.23l-4.99,19.21c-5.93,20.78-22.67,29.81-36.13,29.2-11.55-.52-17.06-6.83-18.37-15.18"/><path class="d" d="M175.59,35.37c9.05,.9,15.3-4.7,15.3-11.73,0-7.72-11.09-10.81-11.09-14.29s7.52-4.8,13.81,1.49l1.8-7.35s-3.66-3.49-11.06-3.49c-8.5,0-13.16,4.95-13.16,10.99,0,6.79,10.97,8.64,10.97,13.6,0,3.35-8.44,5.75-14.68-1.2l-2.15,8s3.07,3.27,10.26,3.98"/><path class="d" d="M380.77,27.37c0,.79,.1,1.52,.31,2.16,.21,.65,.51,1.21,.93,1.67,.41,.46,.94,.82,1.56,1.07,.62,.25,1.35,.37,2.18,.37h3.75l-.95,1.88h-3.34c-.93,0-1.79-.16-2.61-.47-.81-.32-1.52-.78-2.13-1.39-.61-.61-1.1-1.37-1.44-2.25-.34-.9-.52-1.9-.52-3.04s.17-2.1,.51-2.97c.34-.89,.81-1.64,1.4-2.26,.6-.62,1.3-1.1,2.12-1.43,.82-.32,1.71-.5,2.66-.5h4.29l-.95,1.88h-2.8c-.81,0-1.53,.13-2.14,.39-.62,.26-1.14,.62-1.56,1.08-.42,.47-.73,1.02-.95,1.68-.21,.64-.32,1.36-.32,2.13"/><path class="d" d="M395.51,25.57c-1.03,0-1.81,.33-2.36,1-.54,.66-.82,1.58-.82,2.72s.27,2,.82,2.69c.55,.68,1.33,1.02,2.36,1.02,.52,0,.97-.1,1.37-.3,.39-.2,.73-.47,1-.81,.27-.33,.46-.73,.61-1.18,.14-.44,.21-.93,.21-1.43,0-1.15-.28-2.06-.82-2.72-.55-.67-1.34-1-2.37-1m0,9.24c-.82,0-1.56-.12-2.21-.39-.65-.27-1.19-.63-1.64-1.13-.45-.49-.8-1.07-1.03-1.74-.23-.68-.36-1.43-.36-2.26s.12-1.6,.36-2.28c.23-.67,.58-1.26,1.03-1.73,.45-.48,.99-.85,1.64-1.12,.65-.26,1.39-.4,2.21-.4s1.56,.14,2.21,.4c.65,.27,1.2,.64,1.65,1.12,.45,.47,.79,1.06,1.03,1.73,.23,.68,.36,1.44,.36,2.28s-.12,1.6-.36,2.27c-.24,.68-.58,1.27-1.03,1.74-.45,.49-.99,.85-1.65,1.12-.64,.27-1.38,.39-2.21,.39"/><path class="d" d="M404.81,34.53c-1.65,0-2.47-.85-2.47-2.57v-11.74h2.01v11.74c0,.26,.05,.45,.15,.59,.11,.15,.28,.21,.53,.21h1.23l-.9,1.76h-.55Z"/><path class="d" d="M410.22,34.53c-1.65,0-2.47-.85-2.47-2.57v-11.74h2.01v11.74c0,.26,.05,.45,.16,.59,.1,.15,.28,.21,.53,.21h1.24l-.9,1.76h-.55Z"/><path class="d" d="M417.15,25.58c-.94,0-1.65,.26-2.13,.79-.48,.54-.74,1.25-.79,2.15h5.72c-.04-.9-.29-1.61-.72-2.15-.44-.53-1.14-.79-2.08-.79m3.38,8.94h-3.53c-.83,0-1.54-.14-2.15-.43-.62-.28-1.12-.67-1.53-1.17-.41-.48-.71-1.04-.91-1.69-.2-.64-.3-1.33-.3-2.07s.1-1.44,.3-2.1c.2-.65,.5-1.22,.92-1.71,.42-.49,.94-.88,1.57-1.16,.63-.29,1.38-.43,2.25-.43,.93,0,1.71,.14,2.33,.43,.62,.28,1.13,.68,1.51,1.16,.38,.48,.66,1.06,.82,1.71,.16,.66,.24,1.36,.24,2.1v1.12h-7.75c.12,.79,.42,1.4,.91,1.83,.48,.42,1.12,.64,1.9,.64h4.31l-.88,1.76Z"/><path class="d" d="M430.83,34.53h-2.46c-.73,0-1.41-.12-2.04-.36-.63-.24-1.17-.58-1.61-1.04-.45-.46-.81-1-1.06-1.64-.26-.65-.39-1.38-.39-2.21s.13-1.54,.4-2.19c.27-.64,.63-1.2,1.1-1.65,.46-.46,1-.8,1.62-1.04,.62-.23,1.28-.36,1.99-.36h3.36l-.91,1.77h-2.3c-.48,0-.93,.08-1.31,.25-.39,.17-.73,.41-1.01,.72-.28,.31-.5,.68-.65,1.1-.15,.43-.24,.9-.24,1.39,0,1.02,.28,1.85,.84,2.5,.56,.65,1.35,.97,2.36,.97h3.2l-.91,1.76Z"/><path class="d" d="M438.36,34.53h-2.03c-1.06,0-1.89-.3-2.48-.9-.59-.61-.89-1.47-.89-2.57v-10.16h2.01v3.15h4.24l-.89,1.77h-3.35v5.3c0,1.07,.49,1.62,1.48,1.62h2.82l-.9,1.78Z"/><path class="d" d="M442.73,34.53h-2.01v-10.47h2.01v10.47Zm0-12.5h-2.01v-1.81h2.01v1.81Z"/><path class="d" d="M449.16,25.57c-1.03,0-1.82,.33-2.36,1-.55,.66-.82,1.58-.82,2.72s.27,2,.82,2.69c.54,.68,1.33,1.02,2.36,1.02,.52,0,.97-.1,1.37-.3,.4-.2,.73-.47,.99-.81,.27-.33,.47-.73,.61-1.18,.14-.44,.21-.93,.21-1.43,0-1.15-.28-2.06-.82-2.72-.54-.67-1.33-1-2.36-1m0,9.24c-.82,0-1.56-.12-2.21-.39-.65-.27-1.2-.63-1.64-1.13-.45-.49-.79-1.07-1.02-1.74-.24-.68-.36-1.43-.36-2.26s.12-1.6,.36-2.28c.23-.67,.57-1.26,1.02-1.73,.45-.48,1-.85,1.64-1.12,.65-.26,1.39-.4,2.21-.4s1.56,.14,2.21,.4c.65,.27,1.2,.64,1.64,1.12,.45,.47,.79,1.06,1.03,1.73,.23,.68,.35,1.44,.35,2.28s-.12,1.6-.35,2.27c-.24,.68-.58,1.27-1.03,1.74-.45,.49-1,.85-1.64,1.12-.64,.27-1.38,.39-2.21,.39"/><path class="d" d="M461.42,24.06c1.01,0,1.85,.3,2.51,.92,.66,.61,1,1.51,1.02,2.7v6.85h-2.01v-6.92c-.03-.64-.19-1.1-.49-1.34-.3-.25-.68-.39-1.15-.43h-3.34v8.69h-1.99v-10.47h5.44Z"/><path class="d" d="M302.74,31.86c1.18,0,2.27-.21,3.24-.61,.98-.41,1.82-1,2.53-1.78,.72-.77,1.27-1.72,1.65-2.84,.39-1.12,.58-2.41,.58-3.86s-.19-2.78-.58-3.91c-.38-1.13-.93-2.09-1.62-2.86-.7-.78-1.55-1.36-2.55-1.77-.99-.4-2.07-.59-3.26-.59s-2.3,.21-3.28,.62c-.98,.41-1.82,1-2.52,1.77-.7,.78-1.24,1.73-1.63,2.86-.38,1.14-.57,2.43-.57,3.88s.19,2.74,.57,3.88c.39,1.14,.94,2.09,1.65,2.86,.71,.78,1.56,1.36,2.53,1.76,.98,.39,2.06,.6,3.24,.6m11.7-9.09c0,1.81-.26,3.46-.78,4.96-.52,1.51-1.28,2.79-2.29,3.88-1,1.09-2.23,1.93-3.67,2.53-1.45,.58-3.11,.88-4.97,.88s-3.54-.31-5-.88c-1.45-.6-2.67-1.44-3.66-2.51-.99-1.07-1.73-2.36-2.25-3.85-.52-1.5-.78-3.17-.78-5s.26-3.51,.78-5.02c.52-1.51,1.27-2.81,2.25-3.89,1-1.09,2.22-1.93,3.66-2.52,1.45-.59,3.12-.88,5-.88s3.55,.29,5,.88c1.45,.59,2.67,1.43,3.66,2.52,.99,1.08,1.74,2.38,2.26,3.89,.52,1.5,.78,3.18,.78,5.02"/><path class="d" d="M321.11,31.58h3c.8,0,1.51-.16,2.14-.46,.63-.3,1.17-.71,1.61-1.22,.45-.52,.78-1.13,1.01-1.84,.23-.7,.34-1.43,.34-2.2s-.11-1.5-.33-2.2c-.21-.68-.54-1.29-.97-1.79-.43-.51-.97-.91-1.62-1.22-.63-.31-1.36-.46-2.19-.46h-3v11.38Zm0-20.57v6.3h3.26c1.18,0,2.28,.21,3.29,.6,1.02,.4,1.89,.97,2.61,1.72,.73,.76,1.29,1.65,1.7,2.7,.41,1.05,.62,2.24,.62,3.53s-.21,2.56-.63,3.63c-.42,1.06-1.01,1.96-1.74,2.68-.74,.74-1.61,1.31-2.61,1.71-1,.39-2.09,.6-3.24,.6h-6.59V11h3.34Z"/><path class="d" d="M336.54,17.3v17.68c0,.8-.17,1.43-.5,1.91-.34,.47-.86,.71-1.55,.71h-1.31l-1.48,2.89h3.11c.72,0,1.4-.13,2.01-.38,.61-.26,1.15-.62,1.6-1.09,.44-.47,.79-1.04,1.04-1.72,.26-.67,.38-1.44,.38-2.32V17.3h-3.3Z"/><path class="d" d="M351.3,19.81c-1.54,0-2.72,.43-3.5,1.3-.78,.87-1.21,2.05-1.29,3.5h9.38c-.08-1.46-.47-2.64-1.2-3.5-.73-.87-1.86-1.3-3.41-1.3m5.54,14.66h-5.79c-1.35,0-2.53-.24-3.53-.71-1.01-.47-1.84-1.1-2.5-1.9-.67-.79-1.16-1.72-1.49-2.79-.32-1.07-.48-2.2-.48-3.41s.16-2.34,.48-3.43c.33-1.07,.83-2,1.5-2.8,.67-.8,1.53-1.44,2.58-1.9,1.04-.47,2.27-.7,3.69-.7,1.52,0,2.8,.23,3.82,.7,1.03,.46,1.85,1.1,2.48,1.9,.63,.8,1.08,1.74,1.34,2.8,.27,1.08,.4,2.22,.4,3.43v1.85h-12.71c.19,1.3,.69,2.31,1.48,3,.8,.71,1.84,1.06,3.12,1.06h7.06l-1.45,2.89Z"/><path class="d" d="M371.01,34.47h-3.33c-1.73,0-3.09-.49-4.07-1.49-.98-.99-1.47-2.39-1.47-4.2V12.12h3.3v5.18h6.96l-1.45,2.9h-5.5v8.69c0,1.76,.81,2.65,2.42,2.65h4.64l-1.49,2.93Z"/><polygon class="d" points="343.54 11.03 340.28 11.03 336.54 15.57 339.8 15.57 343.54 11.03"/><rect class="d" x="276.96" y="10.45" width=".72" height="24.51"/></g></g></g></svg>