<svg xmlns="http://www.w3.org/2000/svg" xmlns:xlink="http://www.w3.org/1999/xlink" width="462.929" height="48.263" viewBox="0 0 462.929 48.263">
  <defs>
    <clipPath id="clip-path">
      <rect id="사각형_5" data-name="사각형 5" width="462.929" height="48.263" fill="none"/>
    </clipPath>
  </defs>
  <g id="그룹_17" data-name="그룹 17" transform="translate(0 0.001)">
    <g id="그룹_16" data-name="그룹 16" transform="translate(0 -0.001)" clip-path="url(#clip-path)">
      <path id="패스_30" data-name="패스 30" d="M25.3,25.44h7.512v6.973a21.05,21.05,0,0,1-6.66,1.069c-8.293,0-11.071-4.233-11.071-12.786,0-8.187,2.625-12.983,10.936-12.983,4.623,0,7.252,1.45,9.434,4.214l5.721-5.264c-3.477-5-9.6-6.54-15.348-6.54C12.9.124,6.118,7.179,6.118,20.629c0,13.373,6.135,20.626,19.648,20.626,6.183,0,12.246-1.594,15.535-3.886V17.985h-16Z" transform="translate(23.344 0.476)" fill="#5f5e5e"/>
      <path id="패스_31" data-name="패스 31" d="M9.247.248H0V40.17H28.346V32.417H9.247Z" transform="translate(0.002 0.949)" fill="#5f5e5e"/>
      <rect id="사각형_3" data-name="사각형 3" width="10.32" height="39.831" transform="translate(129.619 1.276)" fill="#302d2c"/>
      <path id="패스_32" data-name="패스 32" d="M51.166.033A21.179,21.179,0,1,0,72.346,21.2,21.175,21.175,0,0,0,51.166.033m0,32.246A11.062,11.062,0,1,1,62.242,21.2,11.057,11.057,0,0,1,51.166,32.279" transform="translate(114.494 0.128)" fill="#302d2c"/>
      <path id="패스_33" data-name="패스 33" d="M75.391,29.776c0,14.023-18.3,12.824-18.3,12.824-16.975.231-17.924-9.853-17.8-12.911v-1.05H49.82l.014,1.165c-.043,1.43.544,4.479,7.257,4.479,6.429,0,7.806-2,7.806-4.093,0-2.5-3.771-3.535-7.806-4.507-3.087-.761-4.975-.809-8.066-1.7C44.648,22.75,40,19.441,40,12.646,40,12.646,38.729.241,57.091.01c0,0,17.154-.833,17.067,12.843v.313H63.674v-.313c-.318-4.8-6.583-4.493-6.583-4.493-5.625,0-6.583,2.793-6.583,4,0,2.225,1.43,3.987,4.787,4.676,0,0,2.957.563,8.1,1.57,5.134.973,12,3.65,12,11.172" transform="translate(149.878 0.002)" fill="#302d2c"/>
      <path id="패스_34" data-name="패스 34" d="M35.523.265H18.4V40.1H35.523a19.918,19.918,0,1,0,0-39.835M32.739,32.386H28.728V7.96h4.011A11.94,11.94,0,0,1,44.6,20.163,11.936,11.936,0,0,1,32.739,32.386" transform="translate(70.201 1.014)" fill="#302d2c"/>
      <path id="패스_35" data-name="패스 35" d="M77.573,13.5a8.569,8.569,0,0,0,.366,2.572,5.235,5.235,0,0,0,1.1,1.96,4.623,4.623,0,0,0,1.84,1.262,6.631,6.631,0,0,0,2.576.453h4.44l-1.127,2.23H82.822a8.578,8.578,0,0,1-3.077-.563,7.212,7.212,0,0,1-2.519-1.647,7.846,7.846,0,0,1-1.7-2.663,9.976,9.976,0,0,1-.616-3.6,9.856,9.856,0,0,1,.6-3.515,7.8,7.8,0,0,1,1.661-2.663,6.931,6.931,0,0,1,2.5-1.685,8.143,8.143,0,0,1,3.145-.592h5.071L86.766,7.259H83.453a6.752,6.752,0,0,0-2.533.457,5.129,5.129,0,0,0-1.835,1.276,5.326,5.326,0,0,0-1.132,1.989,8.011,8.011,0,0,0-.38,2.519" transform="translate(285.834 19.249)" fill="#302d2c"/>
      <path id="패스_36" data-name="패스 36" d="M83.988,18.963a6.683,6.683,0,0,1-2.615-.462,5.27,5.27,0,0,1-1.936-1.339,5.612,5.612,0,0,1-1.223-2.051,8.31,8.31,0,0,1-.419-2.668,8.375,8.375,0,0,1,.419-2.692,5.615,5.615,0,0,1,3.159-3.371,7.626,7.626,0,0,1,5.23,0,5.347,5.347,0,0,1,1.941,1.339A5.287,5.287,0,0,1,89.757,9.75a8,8,0,0,1,.424,2.692,8.035,8.035,0,0,1-.424,2.692,5.613,5.613,0,0,1-1.214,2.047A5.423,5.423,0,0,1,86.6,18.5a6.716,6.716,0,0,1-2.615.462m0-10.932a3.371,3.371,0,0,0-2.8,1.194,4.992,4.992,0,0,0-.958,3.217,5.011,5.011,0,0,0,.958,3.174,3.36,3.36,0,0,0,2.8,1.218,3.57,3.57,0,0,0,1.613-.356,3.357,3.357,0,0,0,1.175-.954,4.1,4.1,0,0,0,.727-1.4,5.729,5.729,0,0,0,.246-1.686,4.887,4.887,0,0,0-.973-3.217,3.34,3.34,0,0,0-2.788-1.194" transform="translate(296.843 22.58)" fill="#302d2c"/>
      <path id="패스_37" data-name="패스 37" d="M83.689,21.976q-2.933,0-2.933-3.048V5.044H83.14V18.928a1.125,1.125,0,0,0,.178.7.7.7,0,0,0,.621.241H85.4l-1.064,2.1Z" transform="translate(308.141 19.249)" fill="#302d2c"/>
      <path id="패스_38" data-name="패스 38" d="M85.008,21.976q-2.918,0-2.923-3.048V5.044h2.374V18.928a1.155,1.155,0,0,0,.188.7.7.7,0,0,0,.626.241h1.454l-1.064,2.1Z" transform="translate(313.212 19.249)" fill="#302d2c"/>
      <path id="패스_39" data-name="패스 39" d="M93.112,18.64h-4.18a6.018,6.018,0,0,1-2.552-.515,5.1,5.1,0,0,1-1.791-1.372,5.622,5.622,0,0,1-1.074-2,8.384,8.384,0,0,1-.356-2.466,8.617,8.617,0,0,1,.356-2.475A5.675,5.675,0,0,1,84.593,7.8a5.226,5.226,0,0,1,1.854-1.372,6.48,6.48,0,0,1,2.668-.506,6.694,6.694,0,0,1,2.759.506A4.849,4.849,0,0,1,93.661,7.8a5.4,5.4,0,0,1,.968,2.013,10.952,10.952,0,0,1,.289,2.475v1.334H85.754a3.4,3.4,0,0,0,1.059,2.172,3.265,3.265,0,0,0,2.249.751h5.09Zm-4-10.58A3.165,3.165,0,0,0,86.6,9a3.92,3.92,0,0,0-.934,2.533h6.766A4.136,4.136,0,0,0,91.571,9a2.982,2.982,0,0,0-2.456-.939" transform="translate(317.306 22.58)" fill="#302d2c"/>
      <path id="패스_40" data-name="패스 40" d="M94.829,18.382H91.92a6.72,6.72,0,0,1-2.4-.424,5.021,5.021,0,0,1-1.907-1.233,5.771,5.771,0,0,1-1.247-1.946,6.853,6.853,0,0,1-.467-2.6A6.664,6.664,0,0,1,86.373,9.6a5.875,5.875,0,0,1,1.286-1.96A5.37,5.37,0,0,1,89.58,6.419a6.415,6.415,0,0,1,2.34-.433h3.987L94.829,8.081H92.118a3.9,3.9,0,0,0-1.556.3,3.408,3.408,0,0,0-1.189.857,3.985,3.985,0,0,0-.775,1.3,4.964,4.964,0,0,0-.274,1.647,4.281,4.281,0,0,0,1,2.942,3.482,3.482,0,0,0,2.8,1.151h3.79Z" transform="translate(327.754 22.843)" fill="#302d2c"/>
      <path id="패스_41" data-name="패스 41" d="M94.672,21.327h-2.4a3.936,3.936,0,0,1-2.942-1.088,4.08,4.08,0,0,1-1.055-3.029v-12h2.379V8.932h5.008l-1.04,2.095H90.651v6.265c0,1.271.578,1.912,1.753,1.912h3.337Z" transform="translate(336.82 19.897)" fill="#302d2c"/>
      <path id="패스_42" data-name="패스 42" d="M92.554,7.173H90.18V5.044h2.374Zm0,14.8H90.18V9.576h2.374Z" transform="translate(344.1 19.249)" fill="#302d2c"/>
      <path id="패스_43" data-name="패스 43" d="M97.163,18.963a6.683,6.683,0,0,1-2.615-.462A5.43,5.43,0,0,1,92.6,17.162a5.585,5.585,0,0,1-1.209-2.051,7.929,7.929,0,0,1-.429-2.668,7.993,7.993,0,0,1,.429-2.692A5.279,5.279,0,0,1,92.6,7.718a5.492,5.492,0,0,1,1.946-1.339,7.613,7.613,0,0,1,5.225,0,5.406,5.406,0,0,1,1.946,1.339,5.237,5.237,0,0,1,1.218,2.032,8.25,8.25,0,0,1,.409,2.692,8.291,8.291,0,0,1-.409,2.692,5.557,5.557,0,0,1-1.218,2.047,5.484,5.484,0,0,1-1.946,1.32,6.674,6.674,0,0,1-2.61.462m0-10.932a3.333,3.333,0,0,0-2.788,1.194,4.885,4.885,0,0,0-.968,3.217,4.9,4.9,0,0,0,.968,3.174,3.322,3.322,0,0,0,2.788,1.218,3.62,3.62,0,0,0,1.618-.356,3.34,3.34,0,0,0,1.17-.954,4.258,4.258,0,0,0,.718-1.4,5.736,5.736,0,0,0,.255-1.686,4.941,4.941,0,0,0-.973-3.217,3.34,3.34,0,0,0-2.788-1.194" transform="translate(347.095 22.58)" fill="#302d2c"/>
      <path id="패스_44" data-name="패스 44" d="M100.347,5.985a4.233,4.233,0,0,1,2.971,1.093,4.215,4.215,0,0,1,1.209,3.2v8.1h-2.374V10.2a2.174,2.174,0,0,0-.578-1.589,2.392,2.392,0,0,0-1.353-.51H96.278V18.381h-2.35V5.985Z" transform="translate(358.401 22.839)" fill="#302d2c"/>
      <path id="패스_45" data-name="패스 45" d="M81.1,17.212a17.821,17.821,0,0,1-.92,5.866,12.946,12.946,0,0,1-2.706,4.585,11.9,11.9,0,0,1-4.344,2.971,17.18,17.18,0,0,1-11.774,0,11.734,11.734,0,0,1-4.329-2.966,12.839,12.839,0,0,1-2.663-4.541,17.8,17.8,0,0,1-.929-5.914,17.985,17.985,0,0,1,.929-5.938,13.139,13.139,0,0,1,2.663-4.6A11.85,11.85,0,0,1,61.36,3.708a17.007,17.007,0,0,1,11.818,0A11.812,11.812,0,0,1,77.5,6.675a13.115,13.115,0,0,1,2.687,4.6,18.243,18.243,0,0,1,.92,5.938M67.273,27.951a9.893,9.893,0,0,0,3.828-.718,8.372,8.372,0,0,0,3-2.1,9.358,9.358,0,0,0,1.941-3.357,13.819,13.819,0,0,0,.689-4.56,14.167,14.167,0,0,0-.689-4.623,9.4,9.4,0,0,0-1.926-3.376,8.049,8.049,0,0,0-3-2.095,10.187,10.187,0,0,0-3.848-.7,9.951,9.951,0,0,0-3.877.737,8.047,8.047,0,0,0-2.976,2.095,9.506,9.506,0,0,0-1.931,3.376,14.345,14.345,0,0,0-.674,4.585A14.334,14.334,0,0,0,58.49,21.8a9.359,9.359,0,0,0,1.955,3.376,8.174,8.174,0,0,0,2.991,2.071,10.161,10.161,0,0,0,3.838.7" transform="translate(203.904 10.11)" fill="#302d2c"/>
      <path id="패스_46" data-name="패스 46" d="M63.933,2.784v7.45h3.857a10.46,10.46,0,0,1,3.9.708,8.6,8.6,0,0,1,3.082,2.027,9.437,9.437,0,0,1,2.008,3.183,11.343,11.343,0,0,1,.732,4.185,11.352,11.352,0,0,1-.756,4.286,9.246,9.246,0,0,1-2.051,3.193,8.979,8.979,0,0,1-3.082,2,10.475,10.475,0,0,1-3.833.718H60V2.784Zm0,24.314h3.554a5.737,5.737,0,0,0,2.528-.535,5.562,5.562,0,0,0,1.907-1.454,6.059,6.059,0,0,0,1.2-2.157,8.376,8.376,0,0,0,.414-2.615,8.216,8.216,0,0,0-.395-2.591,6.123,6.123,0,0,0-1.151-2.133,5.84,5.84,0,0,0-4.5-1.955H63.933Z" transform="translate(228.938 10.625)" fill="#302d2c"/>
      <path id="패스_47" data-name="패스 47" d="M69.154,4.331V25.217a3.82,3.82,0,0,1-.6,2.254,2.126,2.126,0,0,1-1.84.838H65.177l-1.763,3.424h3.694a6.061,6.061,0,0,0,2.374-.453,5.451,5.451,0,0,0,1.888-1.291,5.907,5.907,0,0,0,1.242-2.032,7.791,7.791,0,0,0,.438-2.74V4.331Z" transform="translate(241.969 16.528)" fill="#302d2c"/>
      <path id="패스_48" data-name="패스 48" d="M82.511,25.059H75.663a9.582,9.582,0,0,1-4.18-.848,8.027,8.027,0,0,1-2.933-2.244,9.151,9.151,0,0,1-1.777-3.284,13.892,13.892,0,0,1-.573-4.031,13.943,13.943,0,0,1,.573-4.045A9.249,9.249,0,0,1,68.56,7.28,8.319,8.319,0,0,1,71.6,5.055a10.314,10.314,0,0,1,4.373-.838,10.636,10.636,0,0,1,4.512.838A7.716,7.716,0,0,1,83.411,7.28a8.9,8.9,0,0,1,1.594,3.328,17.258,17.258,0,0,1,.462,4.045v2.2H70.443A5.6,5.6,0,0,0,72.2,20.4a5.334,5.334,0,0,0,3.689,1.233H84.23ZM75.971,7.718a5.286,5.286,0,0,0-4.137,1.541,6.451,6.451,0,0,0-1.522,4.151H81.4a6.889,6.889,0,0,0-1.416-4.151,4.936,4.936,0,0,0-4.016-1.541" transform="translate(252.6 16.093)" fill="#302d2c"/>
      <path id="패스_49" data-name="패스 49" d="M81.38,29.47H77.44a6.526,6.526,0,0,1-4.811-1.743,6.784,6.784,0,0,1-1.738-4.97V3.061h3.9V9.177h8.22L81.3,12.6H74.787V22.868q0,3.128,2.865,3.13h5.485Z" transform="translate(270.499 11.682)" fill="#302d2c"/>
      <path id="패스_50" data-name="패스 50" d="M72.88,2.79H69.022L64.606,8.164h3.853Z" transform="translate(246.518 10.649)" fill="#302d2c"/>
      <rect id="사각형_4" data-name="사각형 4" width="1.758" height="29.13" transform="translate(240.342 12.636)" fill="#302d2c"/>
    </g>
  </g>
</svg>
