<svg width="32" height="32" viewBox="0 0 32 32" fill="none" xmlns="http://www.w3.org/2000/svg">
<path fill-rule="evenodd" clip-rule="evenodd" d="M13.797 19.371V13.512L19.561 16.452L13.797 19.372V19.371ZM26.453 12.497C26.453 12.497 26.245 11.06 25.605 10.427C24.794 9.59698 23.885 9.59298 23.468 9.54398C20.483 9.33398 16.005 9.33398 16.005 9.33398H15.995C15.995 9.33398 11.517 9.33398 8.53201 9.54398C8.11501 9.59298 7.20601 9.59698 6.39401 10.427C5.75401 11.06 5.54701 12.497 5.54701 12.497C5.54701 12.497 5.33301 14.185 5.33301 15.872V17.454C5.33301 19.142 5.54701 20.829 5.54701 20.829C5.54701 20.829 5.75501 22.266 6.39401 22.899C7.20601 23.729 8.27201 23.703 8.74701 23.79C10.453 23.95 16 24 16 24C16 24 20.483 23.993 23.468 23.782C23.885 23.733 24.794 23.73 25.605 22.899C26.245 22.266 26.453 20.829 26.453 20.829C26.453 20.829 26.667 19.142 26.667 17.454V15.872C26.667 14.185 26.453 12.497 26.453 12.497Z" fill="white"/>
</svg>
