<svg width="32" height="32" viewBox="0 0 32 32" fill="none" xmlns="http://www.w3.org/2000/svg">
<path fill-rule="evenodd" clip-rule="evenodd" d="M22.667 6.66699C24.877 6.66699 26.667 8.45699 26.667 10.667V22.667C26.667 24.877 24.877 26.667 22.667 26.667H10.667C8.45699 26.667 6.66699 24.877 6.66699 22.667V10.667C6.66699 8.45699 8.45699 6.66699 10.667 6.66699H22.667ZM16.667 10.667C13.353 10.667 10.667 13.353 10.667 16.667C10.667 19.981 13.353 22.667 16.667 22.667C19.981 22.667 22.667 19.981 22.667 16.667C22.667 13.353 19.981 10.667 16.667 10.667ZM16.667 12C19.244 12 21.334 14.09 21.334 16.667C21.334 19.244 19.244 21.334 16.667 21.334C14.09 21.334 12 19.244 12 16.667C12 14.09 14.09 12 16.667 12ZM22.792 9.45899C21.964 9.45899 21.292 10.13 21.292 10.959C21.292 11.787 21.964 12.459 22.792 12.459C23.62 12.459 24.292 11.787 24.292 10.959C24.292 10.13 23.62 9.45899 22.792 9.45899Z" fill="white"/>
</svg>
