<svg width="32" height="32" viewBox="0 0 32 32" fill="none" xmlns="http://www.w3.org/2000/svg">
<path d="M16.958 23.734C17.663 23.734 18.35 23.646 19.018 23.47C19.688 23.294 20.282 23.022 20.804 22.655C21.325 22.287 21.74 21.814 22.049 21.233C22.357 20.653 22.511 19.966 22.511 19.173C22.511 18.188 22.273 17.347 21.795 16.65C21.318 15.952 20.595 15.463 19.625 15.184C20.33 14.846 20.862 14.413 21.222 13.884C21.582 13.355 21.762 12.694 21.762 11.901C21.762 11.166 21.641 10.549 21.399 10.049C21.156 9.549 20.815 9.149 20.374 8.849C19.934 8.547 19.404 8.331 18.787 8.199C18.17 8.066 17.487 8 16.737 8H9.33398V23.734H16.959H16.958ZM16.297 14.369H12.793V10.689H16.033C16.341 10.689 16.639 10.714 16.925 10.766C17.212 10.817 17.465 10.909 17.685 11.041C17.905 11.173 18.082 11.357 18.215 11.592C18.346 11.827 18.413 12.128 18.413 12.496C18.413 13.156 18.214 13.634 17.818 13.928C17.421 14.222 16.914 14.368 16.297 14.368V14.369ZM16.495 21.046H12.793V16.726H16.561C17.311 16.726 17.913 16.899 18.369 17.245C18.824 17.59 19.052 18.166 19.052 18.975C19.052 19.385 18.982 19.724 18.842 19.988C18.702 20.253 18.515 20.462 18.28 20.616C18.045 20.77 17.774 20.881 17.465 20.946C17.156 21.013 16.833 21.046 16.495 21.046V21.046Z" fill="white"/>
</svg>
