<svg width="154" height="41" viewBox="0 0 154 41" fill="none" xmlns="http://www.w3.org/2000/svg">
<g clip-path="url(#clip0_55_9)">
<path d="M97.8113 7.22169V11.1025H103.167V12.1021C103.167 16.1046 101.55 18.221 97.1938 19.6051L98.8426 23.3107C100.308 23.0366 101.7 22.461 102.931 21.6204C104.162 20.7798 105.205 19.6925 105.994 18.4274C106.745 19.6245 107.728 20.6584 108.886 21.4677C110.044 22.277 111.352 22.845 112.734 23.1382L114.826 18.8968C111.027 18.0725 108.292 16.0112 108.292 12.071V11.0997H113.559V7.21889L97.8113 7.22169ZM122.213 6.68872H117.297V12.2788H112.674V16.3096H117.297V26.5172H121.625C122.011 24.7481 122.208 22.9429 122.213 21.132V6.68872ZM122.714 30.1576H108.23C107.848 30.1576 107.728 30.0714 107.728 29.6572V23.9229H102.81V31.6591C102.764 32.0002 102.799 32.3473 102.911 32.6726C103.024 32.9978 103.211 33.2922 103.457 33.5322C103.704 33.7723 104.003 33.9513 104.331 34.0549C104.659 34.1585 105.006 34.1839 105.346 34.129H122.714V30.1576ZM125.507 7.18071V11.0488H131.105V12.9094C131.105 17.8237 130.102 20.9129 125.006 23.1481L126.924 26.5596C129.862 25.5584 132.326 23.5047 133.84 20.7941C135.299 23.3213 137.587 25.2652 140.315 26.2952L142.61 22.2956C137.665 20.4407 135.957 17.5565 135.957 12.8797V11.0418H141.398V7.18493L125.507 7.18071ZM154 13.9839H149.114V6.68164H144.408V34.1276H148.531C148.941 31.9612 149.138 29.7598 149.119 27.5549V17.9255H154.004L154 13.9839Z" fill="white"/>
<path d="M57.4972 33.7458H68.735V28.5869H56.0448V7.25415H49.9258V33.7458H57.4972Z" fill="white"/>
<path d="M82.0974 23.6486H87.0848V28.2787C85.658 28.7477 84.1657 28.9863 82.664 28.9856C77.1539 28.9856 75.3172 26.1863 75.3172 20.5029C75.3172 15.0796 77.0649 11.8901 82.575 11.8901C83.7691 11.79 84.969 11.994 86.0631 12.4829C87.1573 12.9719 88.1099 13.73 88.8324 14.6866L92.6386 11.1903C90.3173 7.86784 86.2526 6.86121 82.445 6.86121C73.8733 6.86121 69.3677 11.5394 69.3677 20.4562C69.3677 29.332 73.4339 34.1404 82.404 34.1404C86.0172 34.2538 89.5908 33.3605 92.7263 31.5602V18.7088H82.0988L82.0974 23.6486Z" fill="white"/>
<path d="M20.4734 4.35806e-06C16.429 0.00263928 12.4758 1.20315 9.11208 3.45027C5.74836 5.69738 3.12457 8.89051 1.57138 12.6273C0.0181925 16.3641 -0.394902 20.4774 0.384146 24.4488C1.16319 28.4201 3.09953 32.0719 5.94914 34.9438C8.79875 37.8158 12.4341 39.7794 16.3971 40.5874C20.3602 41.3953 24.4735 41.0113 28.2188 39.4838C31.9641 37.9563 35.1738 35.3536 37.4433 32.0038C39.7129 28.6539 40.9408 24.7068 40.9723 20.6598V20.3388C40.9298 14.9276 38.751 9.75281 34.9109 5.94274C31.0708 2.13267 25.8811 -0.00352164 20.4734 4.35806e-06Z" fill="url(#paint0_radial_55_9)"/>
<path d="M6.69562 6.70422C-0.227312 13.6389 -0.933748 24.2056 5.14996 30.2948C11.2337 36.384 21.7848 35.6842 28.7162 28.7396C35.6476 21.795 36.3569 11.2269 30.2703 5.13774C28.9035 3.7937 27.2834 2.73498 25.5041 2.02311C23.7247 1.31123 21.8217 0.960451 19.9057 0.991107C14.9204 1.07384 10.1699 3.12541 6.68998 6.69857" fill="url(#paint1_linear_55_9)"/>
<path d="M19.4308 29.6699L19.9366 29.3871V12.1021L19.8109 11.9014L19.9366 11.8646V11.8392H20.0242L21.5529 11.3146L21.827 11.7868C21.8561 11.8236 21.8698 11.8702 21.8652 11.9169L21.8496 27.6567H25.5654L25.8635 28.1232C25.9021 28.1789 25.9183 28.247 25.9087 28.3141V29.8975C25.9111 29.9144 25.91 29.9316 25.9054 29.9481C25.9008 29.9645 25.893 29.9799 25.8822 29.9931C25.8715 30.0064 25.8581 30.0173 25.843 30.0252C25.8279 30.0331 25.8113 30.0377 25.7943 30.0389H20.1104C20.0102 30.0386 19.9122 30.0097 19.8279 29.9555L19.4308 29.6699ZM37.8727 19.5599H25.2277V21.5858L25.5414 22.01C25.5702 22.0378 25.6088 22.053 25.6488 22.0524H36.2296C36.0099 24.9933 34.9525 27.8097 33.1824 30.1676C31.4123 32.5256 29.0039 34.3264 26.2424 35.3568C23.481 36.3871 20.4823 36.6037 17.6016 35.9809C14.7209 35.3581 12.0789 33.9221 9.98881 31.8429C7.12236 28.9604 5.50617 25.0639 5.4903 20.9974C5.47444 16.931 7.06018 13.022 9.90404 10.1171C12.8294 7.22282 16.7807 5.60495 20.8945 5.61705L21.7239 5.60432H21.8157C21.8737 5.60432 21.9231 5.59583 21.9231 5.46294V3.8074C21.9264 3.7449 21.9122 3.6827 21.8821 3.62783L21.5091 3.15845L20.6614 3.27865L20.2376 3.42C10.6302 3.42 3.43604 11.4532 3.43604 21.0189C3.4499 25.6429 5.29885 30.0721 8.57614 33.3319C11.8534 36.5918 16.2906 38.4154 20.9115 38.4015C25.5324 38.3876 29.9586 36.5374 33.2162 33.2579C36.4739 29.9785 38.2963 25.5383 38.2824 20.9143V19.9246L37.8727 19.5599ZM14.2174 11.5479C13.6789 11.5518 13.1536 11.7151 12.7076 12.0173C12.2617 12.3195 11.9151 12.7469 11.7115 13.2459C11.5079 13.7448 11.4564 14.2929 11.5636 14.821C11.6707 15.3492 11.9317 15.8338 12.3136 16.2138C12.6955 16.5938 13.1812 16.8521 13.7096 16.9563C14.238 17.0606 14.7854 17.006 15.2829 16.7994C15.7803 16.5929 16.2055 16.2436 16.5049 15.7957C16.8044 15.3477 16.9646 14.8211 16.9654 14.2822C16.9624 13.5554 16.6714 12.8594 16.1562 12.3471C15.641 11.8347 14.9438 11.5478 14.2174 11.5493V11.5479Z" fill="url(#paint2_linear_55_9)"/>
<path d="M19.8038 29.2867L19.3799 29.6896H25.5964L25.1909 29.2754L19.8038 29.2867Z" fill="#626D77"/>
<path d="M25.1853 28.0553L25.5907 27.6622H21.5204L21.0386 28.0553H25.1853Z" fill="#8699A3"/>
<path d="M21.5586 11.292H19.4097L19.8123 11.678H21.098L21.5586 11.292Z" fill="#8D9AA1"/>
<path d="M21.1011 28.1316L21.549 27.7683V11.1986L21.0884 11.5818L21.1011 28.1316Z" fill="url(#paint3_linear_55_9)"/>
<path d="M25.1641 28.0398V29.2797L25.5695 29.6939V27.6467L25.1641 28.0398Z" fill="url(#paint4_linear_55_9)"/>
<path d="M19.4194 11.1816V29.8027L19.8433 29.3998L19.8249 11.5662L19.4194 11.1816Z" fill="#B4BDC3"/>
<path d="M11.2446 13.9668C11.2444 14.5025 11.4028 15.0263 11.7 15.4719C11.9971 15.9175 12.4196 16.2649 12.9141 16.4702C13.4085 16.6755 13.9527 16.7296 14.4778 16.6254C15.003 16.5213 15.4855 16.2637 15.8643 15.8852C16.2431 15.5067 16.5013 15.0243 16.6062 14.499C16.7111 13.9737 16.658 13.429 16.4535 12.9339C16.2491 12.4388 15.9026 12.0155 15.4578 11.7174C15.0129 11.4193 14.4898 11.26 13.9545 11.2594C13.5987 11.2585 13.2463 11.3279 12.9173 11.4635C12.5884 11.5992 12.2895 11.7986 12.0377 12.0501C11.786 12.3016 11.5863 12.6004 11.4502 12.9294C11.3141 13.2583 11.2443 13.6108 11.2446 13.9668ZM16.2546 13.9668C16.256 14.4236 16.1219 14.8705 15.8692 15.2509C15.6166 15.6314 15.2568 15.9282 14.8354 16.1038C14.4141 16.2795 13.9501 16.326 13.5023 16.2375C13.0545 16.1491 12.643 15.9296 12.3199 15.6069C11.9969 15.2842 11.7768 14.8729 11.6875 14.4249C11.5983 13.977 11.644 13.5126 11.8187 13.0906C11.9934 12.6687 12.2894 12.3081 12.6691 12.0546C13.0488 11.8011 13.4952 11.6661 13.9516 11.6666C14.2538 11.6662 14.5531 11.7254 14.8324 11.8408C15.1117 11.9563 15.3655 12.1256 15.5794 12.3393C15.7933 12.5529 15.963 12.8065 16.0788 13.0858C16.1947 13.3651 16.2544 13.6645 16.2546 13.9668Z" fill="url(#paint5_linear_55_9)"/>
<path d="M36.1108 21.1234L25.3633 21.1107L24.9648 21.5348H35.7025L35.9158 21.3129L36.1108 21.1234Z" fill="#505C61"/>
<path d="M25.3735 19.9176L37.394 19.8978L37.8009 19.4878H24.9751L25.3735 19.9176Z" fill="#8F9CA4"/>
<path d="M37.7936 20.4943V19.4933L37.3923 19.8963V20.4929C37.3901 23.8401 36.3963 27.1116 34.5365 29.8938C32.6768 32.6759 30.0345 34.844 26.9437 36.1239C23.8529 37.4038 20.4523 37.7381 17.1717 37.0845C13.8911 36.431 10.8778 34.8189 8.51253 32.452C6.14727 30.0852 4.53629 27.0698 3.88317 23.787C3.23005 20.5042 3.5641 17.1013 4.84314 14.0084C6.12217 10.9156 8.28876 8.27156 11.0691 6.41054C13.8494 4.54953 17.1186 3.55503 20.4636 3.5528L21.1093 3.54434L21.5049 3.15978L20.4636 3.1499C17.0357 3.14962 13.6847 4.16654 10.8343 6.07211C7.98397 7.97767 5.76235 10.6863 4.45041 13.8553C3.13846 17.0244 2.79513 20.5116 3.46382 23.876C4.1325 27.2403 5.78319 30.3307 8.20711 32.7562C10.631 35.1818 13.7193 36.8336 17.0814 37.5027C20.4435 38.1719 23.9284 37.8283 27.0953 36.5155C30.2622 35.2026 32.969 32.9795 34.8733 30.1273C36.7776 27.275 37.7939 23.9217 37.7936 20.4915V20.4943Z" fill="url(#paint6_linear_55_9)"/>
<path d="M21.1079 4.82812L20.6615 4.81824H20.2376C16.1185 4.87736 12.1883 6.55724 9.2977 9.49435C6.40709 12.4315 4.78859 16.3895 4.79249 20.5118C4.79639 24.6341 6.42238 28.5891 9.31854 31.5208C12.2147 34.4524 16.1481 36.1248 20.2673 36.1762H20.6714C24.6052 36.115 28.3731 34.5793 31.23 31.8725C34.087 29.1657 35.8252 25.4849 36.101 21.5575L36.1152 21.1249L35.9159 21.3073L35.7054 21.5264C35.5054 24.4993 34.4414 27.3489 32.6442 29.7246C30.8469 32.1002 28.3949 33.8983 25.5898 34.8978C22.7847 35.8972 19.7488 36.0543 16.8556 35.3497C13.9624 34.6451 11.3382 33.1096 9.30567 30.9321C7.27317 28.7546 5.92108 26.0301 5.41576 23.0937C4.91043 20.1573 5.27391 17.1371 6.46147 14.4047C7.64902 11.6723 9.60885 9.34689 12.0999 7.71451C14.5909 6.08213 17.5044 5.21398 20.482 5.2169L21.5106 5.22678L21.1079 4.82812Z" fill="url(#paint7_linear_55_9)"/>
<path d="M25.5639 19.909L25.1655 19.4849V21.5448L25.5639 21.1206V19.909Z" fill="#B4BDC3"/>
<path d="M21.1094 4.83099L21.5106 5.23392V3.16272L21.1094 3.5515V4.83099Z" fill="url(#paint8_linear_55_9)"/>
<path d="M19.6511 11.5266V29.4507H25.3449V27.8531H21.283V11.5266H19.6511ZM20.246 3.37324C16.8704 3.41396 13.5823 4.45287 10.7954 6.35917C8.00848 8.26548 5.84729 10.954 4.58375 14.0865C3.32021 17.219 3.01078 20.6555 3.69441 23.9636C4.37803 27.2717 6.02418 30.3035 8.42567 32.6776C10.8272 35.0517 13.8767 36.662 17.1906 37.3058C20.5046 37.9497 23.9347 37.5983 27.0496 36.296C30.1644 34.9936 32.8247 32.7985 34.6957 29.9868C36.5668 27.175 37.5649 23.8724 37.5646 20.4943V19.7167H25.359V21.3058H35.9412V21.5377C35.7388 24.5565 34.659 27.4503 32.8347 29.8631C31.0104 32.276 28.521 34.1026 25.6729 35.1184C22.8248 36.1341 19.7421 36.2947 16.804 35.5804C13.8659 34.8661 11.2005 33.308 9.13563 31.0978C7.07078 28.8876 5.69654 26.1216 5.18193 23.1402C4.66732 20.1587 5.03478 17.0917 6.23913 14.3164C7.44347 11.5412 9.43216 9.17871 11.9606 7.51957C14.4891 5.86044 17.447 4.97698 20.4706 4.97791H21.2886V3.37467C21.1276 3.37467 20.8648 3.37469 20.6486 3.36621L20.246 3.37324Z" fill="url(#paint9_radial_55_9)"/>
<path d="M11.4482 13.9655C11.448 14.4581 11.5937 14.9398 11.8669 15.3496C12.1402 15.7594 12.5287 16.0789 12.9834 16.2677C13.4381 16.4566 13.9385 16.5062 14.4214 16.4105C14.9044 16.3148 15.3481 16.0779 15.6965 15.7299C16.0449 15.3819 16.2823 14.9382 16.3788 14.4552C16.4753 13.9721 16.4265 13.4712 16.2386 13.0159C16.0506 12.5606 15.732 12.1712 15.3229 11.8971C14.9139 11.623 14.4328 11.4764 13.9405 11.4758C13.6134 11.4753 13.2894 11.5393 12.9871 11.6641C12.6847 11.789 12.4099 11.9723 12.1785 12.2035C11.947 12.4348 11.7633 12.7094 11.638 13.0118C11.5127 13.3141 11.4482 13.6382 11.4482 13.9655Z" fill="url(#paint10_radial_55_9)"/>
<path d="M14.4126 11.938C14.9613 11.9409 15.4933 12.127 15.9243 12.4667C15.7109 12.1862 15.4401 11.9545 15.13 11.7871C14.8199 11.6197 14.4777 11.5205 14.1262 11.4961C13.7747 11.4716 13.422 11.5226 13.0918 11.6455C12.7616 11.7684 12.4614 11.9605 12.2113 12.2088C11.9612 12.4572 11.7669 12.7561 11.6415 13.0856C11.5161 13.4151 11.4625 13.7676 11.4842 14.1195C11.5059 14.4714 11.6024 14.8146 11.7672 15.1262C11.9321 15.4378 12.1616 15.7106 12.4402 15.9263C12.1049 15.4986 11.9214 14.9713 11.9189 14.4277C11.92 13.7667 12.1833 13.1333 12.6509 12.6664C13.1184 12.1996 13.7521 11.9376 14.4126 11.938Z" fill="white"/>
<path d="M21.543 3.38038C21.3254 3.38038 20.9143 3.36907 20.7052 3.36907C16.1451 3.3423 11.7603 5.12487 8.51084 8.32641C5.26141 11.5279 3.4122 15.8875 3.36818 20.4505C3.36542 22.701 3.81348 24.9292 4.68586 27.0034C5.55825 29.0777 6.83727 30.9559 8.44735 32.5271C8.5519 32.6303 8.66071 32.7279 8.76667 32.8283C5.69044 29.6805 3.96989 25.4514 3.97429 21.0486C3.97429 11.6511 10.7362 3.84835 21.543 3.37615" fill="white"/>
<path d="M21.2461 27.8333C22.5999 28.1177 23.9836 28.2341 25.3659 28.1796V27.8333H21.2461Z" fill="white"/>
<path d="M21.2931 11.8843V11.3711H19.6387V29.5567C19.6387 29.5567 20.1558 26.7913 20.1558 11.8843H21.2931Z" fill="white"/>
<path d="M37.5632 19.6913H25.1782V21.303H25.6275V20.1395C36.4188 20.1395 37.5632 19.6885 37.5632 19.6885" fill="white"/>
<path d="M35.9214 21.0697C35.9214 21.105 35.9214 21.2775 35.9115 21.31C35.6734 25.2589 33.947 28.9703 31.0809 31.6951C28.2148 34.4199 24.4223 35.9551 20.4691 35.9909C18.4287 35.9922 16.4088 35.5843 14.5286 34.7912C12.6484 33.9981 10.9461 32.836 9.52237 31.3735C7.63471 29.457 6.27227 27.0862 5.56641 24.4897C6.49338 28.1206 8.70091 31.2938 11.782 33.4242C14.863 35.5545 18.6099 36.4985 22.3317 36.0819C26.0535 35.6654 29.4994 33.9164 32.034 31.1576C34.5686 28.3987 36.021 24.8159 36.1234 21.0697H35.9214Z" fill="white"/>
</g>
<defs>
<radialGradient id="paint0_radial_55_9" cx="0" cy="0" r="1" gradientUnits="userSpaceOnUse" gradientTransform="translate(19.708 -991.1) scale(21.3463 21.361)">
<stop stop-color="#BF0C3F"/>
<stop offset="0.5" stop-color="#BF0C3F"/>
<stop offset="0.753" stop-color="#BC0B3D"/>
<stop offset="0.859" stop-color="#B5093A"/>
<stop offset="0.938" stop-color="#A90534"/>
<stop offset="1" stop-color="#99002C"/>
</radialGradient>
<linearGradient id="paint1_linear_55_9" x1="12.2322" y1="2.66186" x2="23.2168" y2="32.7584" gradientUnits="userSpaceOnUse">
<stop stop-color="#F38895"/>
<stop offset="0.086" stop-color="#EB7487"/>
<stop offset="0.314" stop-color="#D84768"/>
<stop offset="0.517" stop-color="#CA2751"/>
<stop offset="0.687" stop-color="#C21343"/>
<stop offset="0.801" stop-color="#BF0C3F"/>
<stop offset="1" stop-color="#BF0C3F"/>
</linearGradient>
<linearGradient id="paint2_linear_55_9" x1="6.85099" y1="10.0661" x2="31.8704" y2="34.6646" gradientUnits="userSpaceOnUse">
<stop stop-color="#CD425C"/>
<stop offset="0.089" stop-color="#BD3251"/>
<stop offset="0.249" stop-color="#A91E43"/>
<stop offset="0.43" stop-color="#9B1038"/>
<stop offset="0.648" stop-color="#920732"/>
<stop offset="1" stop-color="#900531"/>
</linearGradient>
<linearGradient id="paint3_linear_55_9" x1="21.0884" y1="19.6651" x2="21.549" y2="19.6651" gradientUnits="userSpaceOnUse">
<stop stop-color="#B4BDC3"/>
<stop offset="0.04" stop-color="#ADB6BC"/>
<stop offset="0.498" stop-color="#6B7379"/>
<stop offset="0.83" stop-color="#424950"/>
<stop offset="1" stop-color="#333940"/>
</linearGradient>
<linearGradient id="paint4_linear_55_9" x1="25.1641" y1="28.6703" x2="25.5695" y2="28.6703" gradientUnits="userSpaceOnUse">
<stop stop-color="#B3BBC1"/>
<stop offset="0.081" stop-color="#A6AEB3"/>
<stop offset="0.52" stop-color="#636B70"/>
<stop offset="0.838" stop-color="#394146"/>
<stop offset="1" stop-color="#2A3236"/>
</linearGradient>
<linearGradient id="paint5_linear_55_9" x1="75.4495" y1="43.5001" x2="75.9205" y2="43.5001" gradientUnits="userSpaceOnUse">
<stop stop-color="#ABBAC2"/>
<stop offset="1" stop-color="#262A30"/>
</linearGradient>
<linearGradient id="paint6_linear_55_9" x1="79.7008" y1="45.8137" x2="80.1514" y2="45.8137" gradientUnits="userSpaceOnUse">
<stop stop-color="#B4BDC3"/>
<stop offset="1" stop-color="#3E454D"/>
</linearGradient>
<linearGradient id="paint7_linear_55_9" x1="81.4391" y1="46.0853" x2="81.9089" y2="46.0853" gradientUnits="userSpaceOnUse">
<stop stop-color="#B4BDC3"/>
<stop offset="1" stop-color="#485159"/>
</linearGradient>
<linearGradient id="paint8_linear_55_9" x1="21.1094" y1="4.19832" x2="21.5106" y2="4.19832" gradientUnits="userSpaceOnUse">
<stop stop-color="#B3BBC1"/>
<stop offset="0.081" stop-color="#A6AEB3"/>
<stop offset="0.52" stop-color="#636B70"/>
<stop offset="0.838" stop-color="#394146"/>
<stop offset="1" stop-color="#2A3236"/>
</linearGradient>
<radialGradient id="paint9_radial_55_9" cx="0" cy="0" r="1" gradientUnits="userSpaceOnUse" gradientTransform="translate(13.5388 13.2312) scale(26.1477 26.1697)">
<stop stop-color="white"/>
<stop offset="0.35" stop-color="white"/>
<stop offset="0.511" stop-color="#FAFBFC"/>
<stop offset="0.677" stop-color="#EEF1F3"/>
<stop offset="0.845" stop-color="#D9E0E4"/>
<stop offset="1" stop-color="#C0CCD2"/>
</radialGradient>
<radialGradient id="paint10_radial_55_9" cx="0" cy="0" r="1" gradientUnits="userSpaceOnUse" gradientTransform="translate(12.8689 13.0502) scale(3.88351 3.8861)">
<stop stop-color="white"/>
<stop offset="0.35" stop-color="white"/>
<stop offset="0.537" stop-color="#FAFBFC"/>
<stop offset="0.73" stop-color="#EEF1F3"/>
<stop offset="0.926" stop-color="#D9E1E5"/>
<stop offset="1" stop-color="#D0DADF"/>
</radialGradient>
<clipPath id="clip0_55_9">
<rect width="154" height="41" fill="white"/>
</clipPath>
</defs>
</svg>
