<svg width="40" height="40" viewBox="0 0 40 40" fill="none" xmlns="http://www.w3.org/2000/svg">
<path d="M13.3393 21.4285L19.7678 14.9999L26.1964 21.4285" stroke="#C31444" stroke-width="1.5625" stroke-linecap="round" stroke-linejoin="round"/>
<path fill-rule="evenodd" clip-rule="evenodd" d="M19.1964 30.4762V15.8334C19.1964 15.5375 19.4363 15.2977 19.7321 15.2977C20.028 15.2977 20.2678 15.5375 20.2678 15.8334V30.4762C20.2678 30.7721 20.028 31.012 19.7321 31.012C19.4363 31.012 19.1964 30.7721 19.1964 30.4762Z" fill="#C31444"/>
<path d="M28.0357 10H11.9643C11.6684 10 11.4286 10.2398 11.4286 10.5357C11.4286 10.8316 11.6684 11.0714 11.9643 11.0714H28.0357C28.3316 11.0714 28.5714 10.8316 28.5714 10.5357C28.5714 10.2398 28.3316 10 28.0357 10Z" fill="#C31444"/>
</svg>
